<!DOCTYPE svg PUBLIC "-//W3C//DTD SVG 1.1//EN" "http://www.w3.org/Graphics/SVG/1.1/DTD/svg11.dtd">
<!-- Uploaded to: SVG Repo, www.svgrepo.com, Transformed by: SVG Repo Mixer Tools -->
<svg width="76px" height="76px" viewBox="0 0 20 20" xmlns="http://www.w3.org/2000/svg" fill="#000000">
<g id="SVGRepo_bgCarrier" stroke-width="0"/>
<g id="SVGRepo_tracerCarrier" stroke-linecap="round" stroke-linejoin="round"/>
<g id="SVGRepo_iconCarrier"> <rect x="0" fill="none" width="20" height="20"/> <g> <path d="M16 2h-3v1H7V2H4v15h3v-1h6v1h3V2zM6 3v1H5V3h1zm9 0v1h-1V3h1zm-2 1v5H7V4h6zM6 5v1H5V5h1zm9 0v1h-1V5h1zM6 7v1H5V7h1zm9 0v1h-1V7h1zM6 9v1H5V9h1zm9 0v1h-1V9h1zm-2 1v5H7v-5h6zm-7 1v1H5v-1h1zm9 0v1h-1v-1h1zm-9 2v1H5v-1h1zm9 0v1h-1v-1h1zm-9 2v1H5v-1h1zm9 0v1h-1v-1h1z"/> </g> </g>
</svg>